<svg width="19" height="19" viewBox="0 0 19 19" fill="none" xmlns="http://www.w3.org/2000/svg">
<path d="M6.47673 17.2435C6.23739 17.4832 5.95317 17.6734 5.64031 17.8032C5.32744 17.933 4.99207 17.9999 4.65335 18H1V14.3695C1 13.6858 1.27195 13.0294 1.75541 12.5458M6.47673 17.2435L1.75541 12.5458M6.47673 17.2435L15.8948 7.81981M1.75541 12.5458L11.1829 3.10607L12.5295 1.7574C12.7691 1.51738 13.0536 1.32695 13.3669 1.19699C13.6801 1.06703 14.0159 1.00009 14.355 1C14.6941 0.999912 15.0299 1.06668 15.3432 1.19647C15.6565 1.32627 15.9412 1.51656 16.1809 1.75646L17.2442 2.82085C17.7281 3.30491 18 3.96144 18 4.64599C18 5.33055 17.7281 5.98708 17.2442 6.47114L15.8948 7.81981M15.8948 7.81981L11.182 3.10607" stroke="white" stroke-width="2" stroke-linecap="round" stroke-linejoin="round"/>
</svg>
