<svg width="21" height="21" viewBox="0 0 21 21" fill="none" xmlns="http://www.w3.org/2000/svg">
<path d="M15.75 7C15.75 7.46413 15.5656 7.90925 15.2374 8.23744C14.9092 8.56563 14.4641 8.75 14 8.75C13.5359 8.75 13.0908 8.56563 12.7626 8.23744C12.4344 7.90925 12.25 7.46413 12.25 7C12.25 6.53587 12.4344 6.09075 12.7626 5.76256C13.0908 5.43437 13.5359 5.25 14 5.25C14.4641 5.25 14.9092 5.43437 15.2374 5.76256C15.5656 6.09075 15.75 6.53587 15.75 7Z" fill="#E8EBED"/>
<path fill-rule="evenodd" clip-rule="evenodd" d="M10.4501 1.09365H10.5499C12.5703 1.09365 14.1531 1.09365 15.3886 1.2599C16.6521 1.42965 17.6496 1.7849 18.4328 2.56715C19.2159 3.35027 19.5702 4.34777 19.74 5.61215C19.9062 6.84677 19.9062 8.42965 19.9062 10.45V10.527C19.9062 12.1974 19.9062 13.5641 19.8153 14.6771C19.7243 15.7971 19.5379 16.7308 19.1196 17.5078C18.9365 17.8496 18.7075 18.1579 18.4328 18.4326C17.6496 19.2158 16.6521 19.5701 15.3878 19.7399C14.1531 19.9061 12.5703 19.9061 10.5499 19.9061H10.4501C8.42975 19.9061 6.84688 19.9061 5.61137 19.7399C4.34788 19.5701 3.35037 19.2149 2.56725 18.4326C1.87338 17.7388 1.51463 16.8751 1.32475 15.8024C1.13663 14.7498 1.1025 13.4399 1.0955 11.8141C1.09433 11.4 1.09375 10.9619 1.09375 10.4999V10.4491C1.09375 8.42877 1.09375 6.8459 1.26 5.6104C1.42975 4.3469 1.785 3.3494 2.56725 2.56627C3.35037 1.78315 4.34787 1.42877 5.61225 1.25902C6.84688 1.09277 8.42975 1.09277 10.4501 1.09277M5.78638 2.55927C4.66812 2.70977 3.9935 2.99677 3.49563 3.49465C2.99687 3.9934 2.71075 4.66715 2.56025 5.78627C2.408 6.92377 2.40625 8.41827 2.40625 10.499V11.2375L3.28212 10.471C3.66631 10.1347 4.16397 9.95701 4.67428 9.97391C5.18459 9.99081 5.6694 10.201 6.0305 10.562L9.78425 14.3158C10.0755 14.607 10.4602 14.7862 10.8706 14.8217C11.281 14.8572 11.6907 14.7469 12.0278 14.51L12.2885 14.3263C12.7747 13.9846 13.3625 13.818 13.9557 13.8538C14.5489 13.8896 15.1123 14.1255 15.554 14.5231L18.0303 16.7518C18.2805 16.2285 18.4284 15.5408 18.5071 14.5704C18.5929 13.516 18.5938 12.2018 18.5938 10.499C18.5938 8.41827 18.592 6.92377 18.4397 5.78627C18.2892 4.66715 18.0022 3.99252 17.5044 3.49377C17.0056 2.9959 16.3319 2.70977 15.2127 2.55927C14.0752 2.40702 12.5808 2.40527 10.5 2.40527C8.41925 2.40527 6.92387 2.40702 5.78638 2.55927Z" fill="#E8EBED"/>
</svg>
