<svg 
  xmlns="http://www.w3.org/2000/svg"
  width="15" 
  height="15" 
  viewBox="0 0 15 15"
  fill="none"
>
  <path 
    d="M9.02499 3.61251L2.62374 10.0125C2.43341 10.2028 2.30957 10.4494 2.27061 10.7156L1.92499 13.0744L4.28436 12.7288C4.55072 12.6896 4.79732 12.5656 4.98749 12.375L11.3875 5.97501M9.02499 3.61251L10.4181 2.21876C10.511 2.12587 10.6212 2.05219 10.7426 2.00192C10.8639 1.95165 10.994 1.92578 11.1253 1.92578C11.2566 1.92578 11.3867 1.95165 11.508 2.00192C11.6294 2.05219 11.7396 2.12587 11.8325 2.21876L12.7812 3.16751C12.8741 3.26037 12.9478 3.37062 12.9981 3.49196C13.0483 3.6133 13.0742 3.74335 13.0742 3.87469C13.0742 4.00603 13.0483 4.13609 12.9981 4.25743C12.9478 4.37877 12.8741 4.48902 12.7812 4.58188L11.3875 5.97501M9.02499 3.61251L11.3875 5.97501"
    stroke="#E8EBED" 
    stroke-linecap="round"
    stroke-linejoin="round"
  />
</svg>