<svg width="11" height="11" viewBox="0 0 11 11" fill="none" xmlns="http://www.w3.org/2000/svg">
<path fill-rule="evenodd" clip-rule="evenodd" d="M3.99448 1.90027C4.34823 1.87188 4.68405 1.73274 4.95423 1.50262C5.25929 1.2428 5.64691 1.1001 6.04763 1.1001C6.44834 1.1001 6.83596 1.2428 7.14103 1.50262C7.41121 1.73274 7.74702 1.87188 8.10078 1.90027C8.50032 1.9322 8.87542 2.1054 9.15883 2.38882C9.44225 2.67223 9.61545 3.04733 9.64738 3.44687C9.67543 3.80052 9.81458 4.13657 10.045 4.40662C10.3049 4.71168 10.4476 5.0993 10.4476 5.50002C10.4476 5.90074 10.3049 6.28836 10.045 6.59342C9.81491 6.8636 9.67577 7.19941 9.64738 7.55317C9.61545 7.95271 9.44225 8.32781 9.15883 8.61122C8.87542 8.89464 8.50032 9.06784 8.10078 9.09977C7.74702 9.12817 7.41121 9.2673 7.14103 9.49742C6.83596 9.75725 6.44834 9.89994 6.04763 9.89994C5.64691 9.89994 5.25929 9.75725 4.95423 9.49742C4.68405 9.2673 4.34823 9.12817 3.99448 9.09977C3.59494 9.06784 3.21984 8.89464 2.93642 8.61122C2.65301 8.32781 2.47981 7.95271 2.44788 7.55317C2.41948 7.19941 2.28035 6.8636 2.05023 6.59342C1.7904 6.28836 1.64771 5.90074 1.64771 5.50002C1.64771 5.0993 1.7904 4.71168 2.05023 4.40662C2.28035 4.13644 2.41948 3.80063 2.44788 3.44687C2.47981 3.04733 2.65301 2.67223 2.93642 2.38882C3.21984 2.1054 3.59494 1.9322 3.99448 1.90027ZM8.08648 4.78887C8.18667 4.68514 8.2421 4.54621 8.24085 4.402C8.2396 4.25779 8.18175 4.11984 8.07978 4.01787C7.9778 3.9159 7.83986 3.85805 7.69565 3.8568C7.55144 3.85555 7.41251 3.91098 7.30878 4.01117L5.49763 5.82232L4.78648 5.11117C4.68275 5.01098 4.54382 4.95555 4.39961 4.9568C4.2554 4.95805 4.11745 5.0159 4.01548 5.11787C3.9135 5.21984 3.85566 5.35779 3.85441 5.502C3.85315 5.64621 3.90859 5.78514 4.00878 5.88887L5.10878 6.98887C5.21192 7.09198 5.35179 7.1499 5.49763 7.1499C5.64347 7.1499 5.78334 7.09198 5.88648 6.98887L8.08648 4.78887Z" fill="white"/>
</svg>
