<svg width="12" height="9" viewBox="0 0 12 9" fill="none" xmlns="http://www.w3.org/2000/svg">
<g clip-path="url(#clip0_309_281)">
<path d="M2.31387 8.15534L3.76147 7.67258L4.01484 7.79926C4.5969 8.0896 5.24401 8.24436 5.92261 8.24436C8.18921 8.24436 10.0312 6.45985 10.0312 4.47812C10.0312 2.49639 8.18921 0.711871 5.92261 0.711871C3.65602 0.711871 1.81398 2.49639 1.81398 4.47812C1.81398 5.21767 2.08104 5.96818 2.57203 6.60981L2.80827 6.91796L2.31318 8.15466L2.31387 8.15534ZM1.82973 9.0387C1.76777 9.05946 1.70115 9.06205 1.63776 9.04617C1.57436 9.03029 1.51684 8.9966 1.47198 8.94907C1.42712 8.90155 1.3968 8.84218 1.3846 8.77797C1.37239 8.71377 1.37882 8.64742 1.40312 8.58675L2.02763 7.02547C1.4579 6.27907 1.12921 5.38612 1.12921 4.47812C1.12921 2.20878 3.18353 0.0270996 5.92261 0.0270996C8.6617 0.0270996 10.716 2.20878 10.716 4.47812C10.716 6.74745 8.6617 8.92913 5.92261 8.92913C5.15442 8.9313 4.39633 8.75403 3.70875 8.41145L1.82973 9.03801V9.0387Z" fill="white"/>
<path d="M5.92263 5.02593C5.85069 5.02593 5.77945 5.01176 5.71299 4.98423C5.64652 4.9567 5.58613 4.91635 5.53526 4.86548C5.48439 4.81461 5.44404 4.75422 5.41651 4.68776C5.38898 4.62129 5.37481 4.55006 5.37481 4.47812C5.37481 4.40618 5.38898 4.33494 5.41651 4.26847C5.44404 4.20201 5.48439 4.14162 5.53526 4.09075C5.58613 4.03988 5.64652 3.99953 5.71299 3.972C5.77945 3.94447 5.85069 3.9303 5.92263 3.9303C6.06792 3.9303 6.20726 3.98801 6.30999 4.09075C6.41273 4.19349 6.47045 4.33283 6.47045 4.47812C6.47045 4.62341 6.41273 4.76275 6.30999 4.86548C6.20726 4.96822 6.06792 5.02593 5.92263 5.02593ZM7.97694 5.02593C7.905 5.02593 7.83377 5.01176 7.7673 4.98423C7.70084 4.9567 7.64045 4.91635 7.58958 4.86548C7.53871 4.81461 7.49836 4.75422 7.47083 4.68776C7.4433 4.62129 7.42913 4.55006 7.42913 4.47812C7.42913 4.40618 7.4433 4.33494 7.47083 4.26847C7.49836 4.20201 7.53871 4.14162 7.58958 4.09075C7.64045 4.03988 7.70084 3.99953 7.7673 3.972C7.83377 3.94447 7.905 3.9303 7.97694 3.9303C8.12223 3.9303 8.26157 3.98801 8.36431 4.09075C8.46705 4.19349 8.52476 4.33283 8.52476 4.47812C8.52476 4.62341 8.46705 4.76275 8.36431 4.86548C8.26157 4.96822 8.12223 5.02593 7.97694 5.02593ZM3.86831 5.02593C3.79637 5.02593 3.72514 5.01176 3.65867 4.98423C3.59221 4.9567 3.53182 4.91635 3.48095 4.86548C3.43008 4.81461 3.38973 4.75422 3.3622 4.68776C3.33467 4.62129 3.3205 4.55006 3.3205 4.47812C3.3205 4.40618 3.33467 4.33494 3.3622 4.26847C3.38973 4.20201 3.43008 4.14162 3.48095 4.09075C3.53182 4.03988 3.59221 3.99953 3.65867 3.972C3.72514 3.94447 3.79637 3.9303 3.86831 3.9303C4.0136 3.9303 4.15294 3.98801 4.25568 4.09075C4.35841 4.19349 4.41613 4.33283 4.41613 4.47812C4.41613 4.62341 4.35841 4.76275 4.25568 4.86548C4.15294 4.96822 4.0136 5.02593 3.86831 5.02593Z" fill="white"/>
</g>
<defs>
<clipPath id="clip0_309_281">
<rect width="10.9563" height="10.9563" fill="white" transform="translate(0.444458 -1)"/>
</clipPath>
</defs>
</svg>
