<svg width="13" height="13" viewBox="0 0 13 13" fill="none" xmlns="http://www.w3.org/2000/svg">
<path d="M3.25002 11.9165C2.9521 11.9165 2.69716 11.8105 2.48519 11.5985C2.27321 11.3866 2.16705 11.1314 2.16669 10.8332V5.4165C2.16669 5.11859 2.27285 4.86364 2.48519 4.65167C2.69752 4.4397 2.95246 4.33353 3.25002 4.33317H3.79169V3.24984C3.79169 2.50053 4.05584 1.86191 4.58415 1.33396C5.11245 0.806018 5.75108 0.541865 6.50002 0.541504C7.24896 0.541143 7.88777 0.805296 8.41644 1.33396C8.9451 1.86263 9.20908 2.50125 9.20835 3.24984V4.33317H9.75002C10.0479 4.33317 10.3031 4.43934 10.5154 4.65167C10.7277 4.864 10.8337 5.11895 10.8334 5.4165V10.8332C10.8334 11.1311 10.7274 11.3862 10.5154 11.5985C10.3034 11.8109 10.0483 11.9169 9.75002 11.9165H3.25002ZM6.50002 9.20817C6.79794 9.20817 7.05306 9.10219 7.2654 8.89021C7.47773 8.67824 7.58371 8.42312 7.58335 8.12484C7.58299 7.82656 7.47701 7.57162 7.2654 7.36C7.05378 7.14839 6.79866 7.04223 6.50002 7.0415C6.20138 7.04078 5.94644 7.14695 5.73519 7.36C5.52394 7.57306 5.41777 7.828 5.41669 8.12484C5.4156 8.42167 5.52177 8.6768 5.73519 8.89021C5.9486 9.10363 6.20355 9.20962 6.50002 9.20817ZM4.87502 4.33317H8.12502V3.24984C8.12502 2.79845 7.96703 2.41477 7.65106 2.0988C7.33509 1.78282 6.95141 1.62484 6.50002 1.62484C6.04863 1.62484 5.66495 1.78282 5.34898 2.0988C5.03301 2.41477 4.87502 2.79845 4.87502 3.24984V4.33317Z" fill="#BCBCBD"/>
</svg>
