<svg width="24" height="24" viewBox="0 0 24 24" fill="none" xmlns="http://www.w3.org/2000/svg">
<path d="M19.0709 13.142L13.4139 18.8C13.0388 19.175 12.5302 19.3856 11.9999 19.3856C11.4696 19.3856 10.961 19.175 10.5859 18.8L4.9289 13.143C4.46127 12.6795 4.0898 12.1281 3.83583 11.5206C3.58185 10.9131 3.45037 10.2614 3.44893 9.60299C3.44748 8.94454 3.57611 8.29229 3.82742 7.68368C4.07874 7.07508 4.44778 6.5221 4.91338 6.05651C5.37898 5.59091 5.93195 5.22186 6.54056 4.97055C7.14916 4.71924 7.80141 4.59061 8.45986 4.59205C9.11831 4.59349 9.76999 4.72498 10.3775 4.97895C10.985 5.23293 11.5363 5.60439 11.9999 6.07202C12.9415 5.1539 14.2068 4.64369 15.5219 4.65193C16.837 4.66017 18.0959 5.18619 19.0259 6.11605C19.9559 7.0459 20.4821 8.30472 20.4905 9.6198C20.4989 10.9349 19.9889 12.2003 19.0709 13.142Z" stroke="white" stroke-width="2" stroke-linecap="round" stroke-linejoin="round"/>
</svg>
