<svg width="24" height="24" viewBox="0 0 24 24" fill="none" xmlns="http://www.w3.org/2000/svg">
<path d="M6.25 3C5.38805 3 4.5614 3.34241 3.9519 3.9519C3.34241 4.5614 3 5.38805 3 6.25V17.75C3 18.612 3.34241 19.4386 3.9519 20.0481C4.5614 20.6576 5.38805 21 6.25 21H12.022C11.7226 20.5323 11.4843 20.0282 11.313 19.5H6.25C5.78587 19.5 5.34075 19.3156 5.01256 18.9874C4.68437 18.6592 4.5 18.2141 4.5 17.75V6.25C4.5 5.284 5.284 4.5 6.25 4.5H17.75C18.716 4.5 19.5 5.284 19.5 6.25V11.313C20.0282 11.4843 20.5323 11.7226 21 12.022V6.25C21 5.38805 20.6576 4.5614 20.0481 3.9519C19.4386 3.34241 18.612 3 17.75 3H6.25ZM17.5 11C17.6513 11 17.802 11.005 17.952 11.015C17.9949 10.9015 18.0096 10.7792 17.9948 10.6587C17.98 10.5383 17.9363 10.4232 17.8672 10.3234C17.7982 10.2236 17.7059 10.142 17.5984 10.0857C17.4909 10.0293 17.3714 9.99994 17.25 10H12.75C12.5511 10 12.3603 10.079 12.2197 10.2197C12.079 10.3603 12 10.5511 12 10.75C12 10.9489 12.079 11.1397 12.2197 11.2803C12.3603 11.421 12.5511 11.5 12.75 11.5H14.996C15.7894 11.1694 16.6405 10.9995 17.5 11ZM6.75 6C6.55109 6 6.36032 6.07902 6.21967 6.21967C6.07902 6.36032 6 6.55109 6 6.75C6 6.94891 6.07902 7.13968 6.21967 7.28033C6.36032 7.42098 6.55109 7.5 6.75 7.5H17.25C17.4489 7.5 17.6397 7.42098 17.7803 7.28033C17.921 7.13968 18 6.94891 18 6.75C18 6.55109 17.921 6.36032 17.7803 6.21967C17.6397 6.07902 17.4489 6 17.25 6H6.75ZM6 10.75C6 10.4545 6.0582 10.1619 6.17127 9.88896C6.28434 9.61598 6.45008 9.36794 6.65901 9.15901C6.86794 8.95008 7.11598 8.78434 7.38896 8.67127C7.66194 8.5582 7.95453 8.5 8.25 8.5C8.54547 8.5 8.83806 8.5582 9.11104 8.67127C9.38402 8.78434 9.63206 8.95008 9.84099 9.15901C10.0499 9.36794 10.2157 9.61598 10.3287 9.88896C10.4418 10.1619 10.5 10.4545 10.5 10.75C10.5 11.3467 10.2629 11.919 9.84099 12.341C9.41903 12.7629 8.84674 13 8.25 13C7.65326 13 7.08097 12.7629 6.65901 12.341C6.23705 11.919 6 11.3467 6 10.75ZM8.25 10C8.05109 10 7.86032 10.079 7.71967 10.2197C7.57902 10.3603 7.5 10.5511 7.5 10.75C7.5 10.9489 7.57902 11.1397 7.71967 11.2803C7.86032 11.421 8.05109 11.5 8.25 11.5C8.44891 11.5 8.63968 11.421 8.78033 11.2803C8.92098 11.1397 9 10.9489 9 10.75C9 10.5511 8.92098 10.3603 8.78033 10.2197C8.63968 10.079 8.44891 10 8.25 10ZM8.25 14C7.65326 14 7.08097 14.2371 6.65901 14.659C6.23705 15.081 6 15.6533 6 16.25C6 16.8467 6.23705 17.419 6.65901 17.841C7.08097 18.2629 7.65326 18.5 8.25 18.5C8.84674 18.5 9.41903 18.2629 9.84099 17.841C10.2629 17.419 10.5 16.8467 10.5 16.25C10.5 15.6533 10.2629 15.081 9.84099 14.659C9.41903 14.2371 8.84674 14 8.25 14ZM7.5 16.25C7.5 16.0511 7.57902 15.8603 7.71967 15.7197C7.86032 15.579 8.05109 15.5 8.25 15.5C8.44891 15.5 8.63968 15.579 8.78033 15.7197C8.92098 15.8603 9 16.0511 9 16.25C9 16.4489 8.92098 16.6397 8.78033 16.7803C8.63968 16.921 8.44891 17 8.25 17C8.05109 17 7.86032 16.921 7.71967 16.7803C7.57902 16.6397 7.5 16.4489 7.5 16.25ZM23 17.5C23 16.0413 22.4205 14.6424 21.3891 13.6109C20.3576 12.5795 18.9587 12 17.5 12C16.0413 12 14.6424 12.5795 13.6109 13.6109C12.5795 14.6424 12 16.0413 12 17.5C12 18.9587 12.5795 20.3576 13.6109 21.3891C14.6424 22.4205 16.0413 23 17.5 23C18.9587 23 20.3576 22.4205 21.3891 21.3891C22.4205 20.3576 23 18.9587 23 17.5ZM18 18L18.001 20.503C18.001 20.6356 17.9483 20.7628 17.8546 20.8566C17.7608 20.9503 17.6336 21.003 17.501 21.003C17.3684 21.003 17.2412 20.9503 17.1474 20.8566C17.0537 20.7628 17.001 20.6356 17.001 20.503V18H14.496C14.3634 18 14.2362 17.9473 14.1424 17.8536C14.0487 17.7598 13.996 17.6326 13.996 17.5C13.996 17.3674 14.0487 17.2402 14.1424 17.1464C14.2362 17.0527 14.3634 17 14.496 17H17V14.5C17 14.3674 17.0527 14.2402 17.1464 14.1464C17.2402 14.0527 17.3674 14 17.5 14C17.6326 14 17.7598 14.0527 17.8536 14.1464C17.9473 14.2402 18 14.3674 18 14.5V17H20.497C20.6296 17 20.7568 17.0527 20.8506 17.1464C20.9443 17.2402 20.997 17.3674 20.997 17.5C20.997 17.6326 20.9443 17.7598 20.8506 17.8536C20.7568 17.9473 20.6296 18 20.497 18H18Z" fill="#E8EBED"/>
</svg>
